<?xml version="1.0" encoding="UTF-8"?>
<svg xmlns="http://www.w3.org/2000/svg" xmlns:xlink="http://www.w3.org/1999/xlink" viewBox="0 0 240 240" width="240px" height="240px">
<g id="surface52898572">
<path style=" stroke:none;fill-rule:nonzero;fill:rgb(3.529412%,25.098041%,40.392157%);fill-opacity:1;" d="M 120 24 C 66.984375 24 24 66.984375 24 120 C 24 173.015625 66.984375 216 120 216 C 173.015625 216 216 173.015625 216 120 C 216 66.984375 173.015625 24 120 24 Z M 168 128 L 128 128 L 128 168 C 128 172.425781 124.414062 176 120 176 C 115.582031 176 112 172.425781 112 168 L 112 128 L 72 128 C 67.582031 128 64 124.425781 64 120 C 64 115.574219 67.582031 112 72 112 L 112 112 L 112 72 C 112 67.574219 115.582031 64 120 64 C 124.414062 64 128 67.574219 128 72 L 128 112 L 168 112 C 172.414062 112 176 115.574219 176 120 C 176 124.425781 172.414062 128 168 128 Z M 168 128 "/>
</g>
</svg>
